<mxfile host="app.diagrams.net" modified="2023-02-10T10:25:35.501Z" agent="5.0 (Windows NT 10.0; Win64; x64) AppleWebKit/537.36 (KHTML, like Gecko) Chrome/109.0.0.0 Safari/537.36" etag="xJrx5rzzObNjCc6s9mVk" version="20.8.19" type="github">
  <diagram name="Page-1" id="HWJ25cZsQcPFM_4ILpuk">
    <mxGraphModel dx="794" dy="430" grid="1" gridSize="10" guides="1" tooltips="1" connect="1" arrows="1" fold="1" page="1" pageScale="1" pageWidth="850" pageHeight="1100" math="0" shadow="0">
      <root>
        <mxCell id="0" />
        <mxCell id="1" parent="0" />
        <mxCell id="D7NxdxyPJj0hAmpddPoZ-1" value="" style="ellipse;shape=cloud;whiteSpace=wrap;html=1;" vertex="1" parent="1">
          <mxGeometry x="430" y="100" width="300" height="210" as="geometry" />
        </mxCell>
        <mxCell id="D7NxdxyPJj0hAmpddPoZ-2" value="" style="sketch=0;pointerEvents=1;shadow=0;dashed=0;html=1;strokeColor=none;fillColor=#505050;labelPosition=center;verticalLabelPosition=bottom;verticalAlign=top;outlineConnect=0;align=center;shape=mxgraph.office.servers.windows_server;" vertex="1" parent="1">
          <mxGeometry x="500" y="190" width="46" height="50" as="geometry" />
        </mxCell>
        <mxCell id="D7NxdxyPJj0hAmpddPoZ-3" value="" style="sketch=0;pointerEvents=1;shadow=0;dashed=0;html=1;strokeColor=none;fillColor=#505050;labelPosition=center;verticalLabelPosition=bottom;verticalAlign=top;outlineConnect=0;align=center;shape=mxgraph.office.servers.windows_server;" vertex="1" parent="1">
          <mxGeometry x="626" y="150" width="46" height="50" as="geometry" />
        </mxCell>
        <mxCell id="D7NxdxyPJj0hAmpddPoZ-4" value="" style="sketch=0;pointerEvents=1;shadow=0;dashed=0;html=1;strokeColor=none;fillColor=#505050;labelPosition=center;verticalLabelPosition=bottom;verticalAlign=top;outlineConnect=0;align=center;shape=mxgraph.office.servers.windows_server;" vertex="1" parent="1">
          <mxGeometry x="598" y="230" width="46" height="50" as="geometry" />
        </mxCell>
        <mxCell id="D7NxdxyPJj0hAmpddPoZ-5" value="Self hosted LW agents" style="text;html=1;strokeColor=none;fillColor=none;align=center;verticalAlign=middle;whiteSpace=wrap;rounded=0;" vertex="1" parent="1">
          <mxGeometry x="530" y="310" width="114" height="30" as="geometry" />
        </mxCell>
        <mxCell id="D7NxdxyPJj0hAmpddPoZ-6" value="Novo Nordisk domain" style="text;html=1;strokeColor=none;fillColor=none;align=center;verticalAlign=middle;whiteSpace=wrap;rounded=0;" vertex="1" parent="1">
          <mxGeometry x="510" y="140" width="100" height="20" as="geometry" />
        </mxCell>
      </root>
    </mxGraphModel>
  </diagram>
</mxfile>
